<svg version="1.1" xmlns="http://www.w3.org/2000/svg" xmlns:xlink="http://www.w3.org/1999/xlink" width="651" height="432" viewBox="0 0 651 432"><path stroke="none" fill="#000000" fill-rule="evenodd" d="M177.255197,431.411470C177.751518,430.915149 176.272106,426.384136 172.419242,416.600324C171.769414,414.950174 172.011650,414.786108 174.263420,415.351266C176.845864,415.999418 176.853942,415.981983 176.394759,410.750942C172.002902,360.718588 168.288360,321.333047 165.478020,295.000000C163.570347,277.125000 162.007381,262.213575 162.004762,261.863499C162.002143,261.513424 160.610151,261.023012 158.911446,260.773695C156.147371,260.368015 155.431895,260.855119 152.101186,265.410196C121.726512,306.950592 114.146187,316.018982 88.076863,342.002892C71.268833,358.755852 61.914088,367.188002 51.466200,375.002892C43.747610,380.776302 36.322610,386.233967 34.966200,387.131038C32.613489,388.687019 32.579319,388.850366 34.223663,390.680677C35.889991,392.535458 35.790199,392.640734 31.223663,393.845547C17.850615,397.373828 18.765855,396.930956 19.424455,399.555026C20.210654,402.687495 17.860532,408.283852 14.883127,410.369307C9.867463,413.882415 -0.000000,410.886590 0.000000,405.850695C0.000000,404.121368 0.355002,404.268446 2.588894,406.923275C9.086396,414.645117 21.178345,407.046922 16.571026,398.137348C14.779292,394.672518 12.245527,393.000000 8.788248,393.000000C5.841698,393.000000 2.122028,395.555742 0.991581,398.356999C0.192145,400.338006 0.121981,400.291010 0.063386,397.735302C0.015665,395.653860 0.803192,394.480887 3.250000,392.989040C7.418650,390.447364 10.639813,390.483093 14.963649,393.118967L18.427297,395.230458L24.140676,388.865229C29.559129,382.828575 29.898199,382.617559 30.709227,384.777375C31.552361,387.022694 31.667001,386.984069 38.853363,382.033461C59.914226,367.524858 87.292529,342.660100 106.607160,320.500000C121.389815,303.539535 148.379389,269.046056 147.531196,268.197863C147.333249,267.999916 146.165316,268.376342 144.935790,269.034364C141.824101,270.699690 134.199441,270.527999 129.809471,268.693752C126.276734,267.217680 125.741668,267.288513 116.315435,270.480114C80.568776,282.583474 42.612896,283.727971 14.124273,273.561522C8.503513,271.555697 8.000000,271.591747 8.000000,274.000000C8.000000,276.681181 7.102326,276.489321 3.250000,272.984783C-0.803139,269.297561 -1.425331,264.076814 2.250000,264.593896C12.337044,266.013040 12.308617,266.001500 10.537882,267.958140C8.965785,269.695289 9.101686,269.868200 13.190445,271.333068C20.002964,273.773769 23.868875,274.790069 33.500000,276.672194C45.828275,279.081400 71.762562,279.034497 85.500000,276.578150C94.697597,274.933558 114.657568,269.644406 121.275157,267.098166L124.050313,266.030373L117.275157,259.579528C111.183824,253.779774 109.793483,252.957367 103.500000,251.431313C99.650000,250.497759 93.875533,248.685309 90.667850,247.403646C87.460168,246.121984 80.710168,244.168502 75.667850,243.062575C63.484177,240.390343 47.855263,235.844416 37.731655,232.028208C25.662327,227.478539 0.000000,214.804546 0.000000,213.393470C0.000000,212.710527 4.604968,214.582850 10.510304,217.666830C24.898320,225.180774 42.824057,232.288121 59.341914,237.027998C66.954966,239.212599 73.704966,240.995777 74.341914,240.990616C74.978861,240.985455 73.250000,239.674258 70.500000,238.076846C67.750000,236.479433 61.901571,232.681260 57.503491,229.636461C50.190733,224.573826 49.445308,224.267180 48.785715,226.050231C48.389018,227.122604 47.898388,228.000000 47.695425,228.000000C47.492463,228.000000 45.187423,224.897718 42.573114,221.106041C37.877320,214.295470 37.787651,214.228869 35.159913,215.599880C30.669728,217.942615 27.142835,217.342835 23.400000,213.600000C20.604556,210.804556 20.000000,209.447519 20.000000,205.968077C20.000000,202.472885 20.576500,201.192444 23.311527,198.612982L26.623055,195.489810L23.893675,184.610405C22.392517,178.626732 19.692985,166.091986 17.894716,156.755414L14.625135,139.779830L10.062568,145.115568C1.934708,154.620770 0.059149,156.521644 0.029313,155.284240C0.013191,154.615572 3.210631,150.430895 7.134736,145.984959L14.269471,137.901438L12.620432,126.200719C10.299739,109.734307 8.244921,88.761382 7.438375,73.308995C6.897684,62.950048 6.427458,59.994273 5.248183,59.541742C3.181904,58.748837 1.199430,60.618821 0.709193,63.823180C0.483952,65.295431 0.232240,62.588222 0.149832,57.807160C0.026741,50.665786 0.365317,48.495154 2.046866,45.645142C3.377541,43.389815 3.724966,41.948053 3.039803,41.524599C2.460142,41.166349 1.799705,41.464258 1.572165,42.186618C1.344625,42.908978 0.933330,44.175000 0.658175,45.000000C0.383021,45.825000 0.122368,44.610462 0.078947,42.301027L-0.000000,38.102053L3.661656,39.631991C5.916654,40.574189 8.590819,40.924142 10.622746,40.542951C14.246462,39.863137 19.951711,34.815648 20.083333,32.173077C20.129167,31.252885 20.277406,29.508629 20.412755,28.296954C20.813855,24.706205 18.344028,20.180177 14.806555,18.023433C10.940924,15.666616 4.767219,15.375638 2.690476,17.452381C1.129123,19.013734 -0.000000,18.519331 -0.000000,16.274316C-0.000000,15.508524 0.450000,15.160081 1.000000,15.500000C1.550000,15.839919 2.000000,15.668034 2.000000,15.118034C2.000000,14.568034 1.550000,13.839919 1.000000,13.500000C0.450000,13.160081 -0.000000,9.983524 -0.000000,6.440983L0.000000,0.000000L10.000000,0.000000C15.500000,0.000000 20.000000,0.349872 20.000000,0.777494C20.000000,1.205115 19.394911,2.442615 18.655357,3.527494C17.915804,4.612372 16.073044,7.637500 14.560336,10.250000C12.441300,13.909648 12.153572,15.000000 13.306880,15.000000C14.160728,15.000000 16.456943,11.779851 18.651902,7.504289C20.768356,3.381648 23.062500,0.006648 23.750000,0.004289C24.437500,0.001930 24.946711,0.337500 24.881579,0.750000C24.426473,3.632339 25.133746,4.254063 26.556704,2.222506C27.412891,1.000128 28.841332,0.000000 29.731018,-0.000000C31.035177,-0.000000 30.902776,0.474588 29.047742,2.449181L26.746857,4.898361L29.359344,5.554054C31.864086,6.182704 31.694026,6.412277 25.235916,11.120484C19.025216,15.648320 16.556743,18.912347 19.875821,18.208060C20.632523,18.047492 26.514787,13.884992 32.947520,8.958060C39.380253,4.031127 45.286133,0.010006 46.071699,0.022236C47.708055,0.047711 46.964346,0.677625 31.750000,12.152590C18.468893,22.169467 17.349448,25.317213 28.080433,22.470976C56.205271,15.011275 111.882120,9.116042 142.880157,10.315635C156.105666,10.827449 157.996918,10.717404 156.380157,9.530120C154.224865,7.947360 154.375890,7.860731 165.250000,4.442333C168.425444,3.444096 171.000000,2.044901 171.000000,1.317378C171.000000,-0.572807 171.485934,-0.360219 174.846154,3.000000C179.037607,7.191453 184.004116,7.149730 188.266591,2.887256L191.379335,-0.225489L200.248061,4.121589C207.836085,7.840921 208.823397,8.599581 207.085090,9.375235C205.148167,10.239515 205.130214,10.411850 206.700212,13.069646C208.371707,15.899260 210.589315,16.961707 214.875402,16.986345C217.225446,16.999854 217.246041,16.909265 216.804667,8.500000C216.559292,3.825000 216.700289,-0.000000 217.117993,-0.000000C218.217083,-0.000000 219.270130,8.135675 218.851818,13.395262L218.493342,17.902510L224.996671,19.011826C228.573502,19.621950 237.890250,21.589715 245.700554,23.384637L259.901109,26.648133L260.200554,24.385843C260.489246,22.204799 260.760846,22.287180 267.763269,26.679766L275.026539,31.235979L277.039355,28.677098C278.146404,27.269713 279.978567,25.824190 281.110830,25.464824C282.746904,24.945554 283.041752,24.266288 282.547212,22.155716C281.244511,16.596123 275.822415,7.072288 271.987435,3.607613C269.791177,1.623426 268.619214,-0.000000 269.383073,0.000000C273.144050,0.000000 281.286342,11.522697 284.045661,20.750000C285.042115,24.082192 285.793156,25.000000 287.523429,25.000000C288.737198,25.000000 290.866502,25.893750 292.255214,26.986111L294.780145,28.972222L300.594546,22.349531C304.146843,18.303409 306.554745,16.266291 306.783701,17.113419C306.989816,17.876039 307.334140,19.063698 307.548865,19.752662C307.797260,20.549662 314.286018,17.152478 325.387134,10.413449C334.983457,4.587918 343.559265,-0.025780 344.444484,0.160787C345.329703,0.347354 337.726026,5.424729 327.547423,11.443841C310.406041,21.580391 309.154821,22.513594 310.585579,24.094564C312.516819,26.228560 312.214811,26.398003 302.755817,28.487488C295.170069,30.163176 295.024623,30.252407 295.646494,32.849087C295.995666,34.307089 296.452632,35.697083 296.661973,35.937963C298.208248,37.717196 449.306121,60.000000 459.824677,60.000000C461.771438,60.000000 462.129019,59.601372 461.689595,57.921010C461.335710,56.567752 461.556805,56.005358 462.322963,56.309931C462.970333,56.567282 466.613037,58.063716 470.417861,59.635339C475.851216,61.879645 477.433719,62.198843 477.792394,61.122817C478.043564,60.369307 479.445125,58.414177 480.906974,56.778084C482.894818,54.553300 484.713318,53.673924 488.120333,53.289904C492.173307,52.833075 493.071977,53.124300 496.267643,55.930131C498.243164,57.664662 500.151868,60.414964 500.509205,62.041912C500.866543,63.668860 501.308570,65.000000 501.491487,65.000000C501.674404,65.000000 505.319804,64.331154 509.592375,63.513677C513.864946,62.696199 517.540991,62.207658 517.761364,62.428030C517.981736,62.648403 517.704927,63.682832 517.146233,64.726762C516.190964,66.511698 516.826802,66.699785 527.815212,67.882747C534.241846,68.574609 557.433904,71.380318 579.353119,74.117657L619.206239,79.094637L622.353119,75.476151C624.758353,72.710459 626.495046,71.726451 629.722076,71.300909C633.561582,70.794601 634.263824,71.063824 637.472076,74.272076C640.023432,76.823432 641.000000,78.676312 641.000000,80.965741C641.000000,89.518262 633.323453,94.382650 625.472058,90.805315C622.853408,89.612178 620.000000,85.370649 620.000000,82.671221C620.000000,81.663895 617.863876,80.926490 612.750000,80.168472C603.898891,78.856492 545.134070,71.600045 528.279591,69.737826L516.059182,68.387617L516.637999,70.693808C516.956348,71.962214 517.004924,73.000000 516.745946,73.000000C516.486967,73.000000 513.001291,71.650000 509.000000,70.000000C504.998709,68.350000 501.446667,67.000000 501.106574,67.000000C500.766481,67.000000 499.935453,68.248794 499.259845,69.775099C496.195400,76.698160 486.022341,77.946235 480.750000,72.045967C479.237500,70.353331 478.000000,67.850546 478.000000,66.484223C478.000000,65.117901 477.887500,64.000615 477.750000,64.001367C477.612500,64.002119 473.675000,64.676504 469.000000,65.500000C464.325000,66.323496 460.398638,66.997881 460.274751,66.998633C460.150864,66.999385 460.446529,65.955740 460.931784,64.679423L461.814065,62.358846L440.157033,59.630880C408.440383,55.635782 368.021320,49.745161 330.125030,43.594961L296.750061,38.178527L293.029867,42.089264C290.673648,44.566164 288.408931,46.000000 286.852934,46.000000C284.412461,46.000000 284.401164,46.044692 285.146746,52.750000C286.414998,64.155882 286.392877,64.303529 283.681865,62.527205L281.363729,61.008305L279.590412,68.754152C272.409079,100.122205 250.915051,145.124337 228.606201,175.500000L224.199611,181.500000L242.221972,193.294429C258.943000,204.237222 260.370969,204.974253 261.998138,203.501685C264.816611,200.951002 270.353948,200.505295 273.816106,202.550443C277.264656,204.587551 279.000000,207.777112 279.000000,212.078438C279.000000,214.014788 279.614532,215.283268 280.750000,215.690681C286.598216,217.789059 353.629426,245.996433 375.196969,255.434869C389.365612,261.635382 401.192557,266.474110 401.479069,266.187598C401.765581,265.901086 402.000000,264.786712 402.000000,263.711212C402.000000,262.153048 403.305636,262.902042 408.426313,267.397747L414.852626,273.039737L418.565860,270.519869C420.608138,269.133941 423.363645,268.000000 424.689207,268.000000C431.723692,268.000000 437.110397,275.105433 434.976859,281.570117C432.774215,288.244196 424.621810,291.225116 419.116873,287.369307C416.297896,285.394819 413.691388,279.547712 414.497700,277.007247C415.207632,274.770449 414.081661,274.383367 404.192121,273.464436C397.093358,272.804823 396.933415,272.731057 398.602657,270.886565C399.547785,269.842210 400.119041,268.785708 399.872115,268.538781C398.668144,267.334810 345.029318,244.197638 301.279084,226.010558L279.058167,216.773268L275.952358,219.386634C273.793308,221.203355 271.685558,222.000000 269.037955,222.000000L265.229360,222.000000L262.895879,230.456975C260.675297,238.504779 260.474748,238.834628 258.750816,237.274492C257.048736,235.734130 256.653961,235.912393 252.219618,240.223693C245.654733,246.606416 238.855967,250.629612 229.500000,253.668114C218.446490,257.257921 198.284137,257.964776 182.913720,255.301344L172.327440,253.466922L171.172438,255.914353C170.270055,257.826487 170.307336,258.704976 171.342890,259.930892C172.071891,260.793901 183.174887,274.100000 196.016215,289.500000C230.419597,330.758355 267.123305,374.000000 267.740206,374.000000C268.036826,374.000000 268.857632,373.212500 269.564219,372.250000C270.917354,370.406785 270.912782,370.399227 276.551681,383.801072C277.750445,386.650147 278.209537,386.958227 279.904571,386.051072C284.435152,383.626379 290.653058,385.449798 293.334729,389.989504C296.051467,394.588575 295.483639,398.716361 291.600000,402.600000C286.830046,407.369954 282.135627,407.335627 277.295403,402.495403C274.237709,399.437709 273.853428,398.513196 274.281883,395.245403C274.551976,393.185431 275.082078,390.561879 275.459888,389.415286C276.038664,387.658797 275.111872,386.656279 269.573408,383.047827C265.958034,380.692318 263.000000,378.530049 263.000000,378.242784C263.000000,377.955520 263.700072,377.208580 264.555715,376.582918C265.876647,375.617030 263.039745,371.827470 245.757941,351.472676C234.563521,338.287704 212.576285,312.165482 196.897415,293.423293C170.690923,262.096609 168.213225,259.425635 166.195189,260.326108C164.987835,260.864844 164.000000,261.922001 164.000000,262.675345C164.000000,263.428689 165.561943,278.772422 167.470984,296.772530C171.198010,331.914177 176.453245,388.000251 177.595096,404.821296C178.287437,415.020428 178.323570,415.135605 180.647865,414.552244C183.446211,413.849904 183.441809,413.798278 181.366940,422.986082C179.985429,429.103602 179.946920,430.352420 181.116940,431.093435C182.093080,431.711658 181.641866,431.973880 179.583333,431.984687C177.979167,431.993109 176.931505,431.735161 177.255197,431.411470zM290.545455,401.545455C295.938182,396.152728 292.134079,387.000000 284.500000,387.000000C279.623421,387.000000 276.000000,390.623421 276.000000,395.500000C276.000000,403.134079 285.152728,406.938182 290.545455,401.545455zM430.086657,285.718197C434.674225,282.195974 435.081928,276.928082 431.076923,272.923077C425.895974,267.742128 417.801063,270.305784 416.410333,277.567984C415.529649,282.166798 419.873427,287.011331 424.838894,286.968197C426.852502,286.950705 429.213996,286.388205 430.086657,285.718197zM144.500000,267.121160C148.352561,265.353879 154.000000,260.517841 154.000000,258.986081C154.000000,258.578426 153.391154,257.739592 152.647010,257.122007C151.610075,256.261428 149.098899,257.013633 141.897010,260.342097C136.728654,262.730731 131.600000,265.031952 130.500000,265.455920C128.731084,266.137706 128.904397,266.378194 132.000000,267.537308C136.855054,269.355229 139.847010,269.255621 144.500000,267.121160zM137.368954,260.441427C143.093900,257.934213 148.615408,255.201925 149.638973,254.369678C151.362910,252.967967 151.242275,252.900439 148.001336,253.452983C140.640171,254.707978 124.255123,255.150413 118.729042,254.243403C113.007438,253.304302 112.973229,253.313280 114.729042,255.293152C116.562653,257.360750 125.881265,265.000000 126.569779,265.000000C126.784380,265.000000 131.644009,262.948642 137.368954,260.441427zM168.411106,255.923275C172.033295,251.618548 171.908258,246.754412 168.076923,242.923077C165.912821,240.758974 164.205128,240.000000 161.500000,240.000000C158.794872,240.000000 157.087179,240.758974 154.923077,242.923077C151.091742,246.754412 150.966705,251.618548 154.588894,255.923275C156.744470,258.485032 157.901219,259.000000 161.500000,259.000000C165.098781,259.000000 166.255530,258.485032 168.411106,255.923275zM223.314567,253.521356C232.299714,251.617522 243.245822,246.216385 249.750000,240.477323C252.637500,237.929493 255.000000,235.498568 255.000000,235.075267C255.000000,234.651966 254.054538,233.883751 252.898972,233.368124C250.959818,232.502849 251.300037,232.012334 257.314837,227.001499L263.831729,221.572380L260.802420,218.122187C258.154261,215.106101 257.845242,214.145733 258.346402,210.489372L258.919695,206.306750L241.004895,194.749923L223.090096,183.193096L220.330426,186.846548C213.941758,195.304331 202.046594,209.254736 192.061299,220.000000C186.183641,226.325000 180.351057,233.635748 179.100002,236.246107C177.848947,238.856466 175.817307,241.785146 174.585247,242.754284C172.803884,244.155505 172.432844,245.267612 172.773413,248.184835L173.201688,251.853316L180.350844,252.980658C184.282880,253.600696 188.175000,254.256500 189.000000,254.437999C193.519080,255.432192 217.293680,254.797102 223.314567,253.521356zM134.000000,251.500000C134.000000,250.337510 132.682966,250.000000 128.146691,250.000000C124.927371,250.000000 119.414871,249.717053 115.896691,249.371229C110.648782,248.855379 109.720919,248.977524 110.730132,250.051361C112.247334,251.665717 118.356909,252.709927 127.250000,252.874833C132.638963,252.974762 134.000000,252.697547 134.000000,251.500000zM107.500000,249.000000C107.160081,248.450000 106.233524,248.000000 105.440983,248.000000C104.648442,248.000000 104.000000,248.450000 104.000000,249.000000C104.000000,249.550000 104.926558,250.000000 106.059017,250.000000C107.191476,250.000000 107.839919,249.550000 107.500000,249.000000zM102.000000,248.000000C101.175000,247.466844 99.600000,247.055363 98.500000,247.085598L96.500000,247.140571L98.500000,248.000000C99.600000,248.472686 101.175000,248.884167 102.000000,248.914402C103.333333,248.963266 103.333333,248.861666 102.000000,248.000000zM133.589356,246.500000C132.816585,243.421036 132.947372,243.421002 141.993668,246.497846C149.782382,249.146959 151.244355,249.095221 148.823873,246.256131C148.000413,245.290259 143.707839,240.225000 139.284818,235.000000C132.644438,227.155590 128.869480,223.852164 117.623594,216.044492L104.004226,206.588984L108.937160,204.748835L113.870094,202.908686L101.634378,186.204343C87.114572,166.381733 71.002768,143.170424 57.414903,122.500000C51.991701,114.250000 47.413693,107.296429 47.241553,107.047619C47.069413,106.798810 44.610949,108.912860 41.778300,111.745509L36.628029,116.895780L41.984942,129.697890C53.044983,156.129507 68.353072,185.967759 81.130650,206.000000L85.914530,213.500000L91.039294,213.500000C95.563824,213.500000 96.505823,213.882501 99.082029,216.765777C102.631130,220.737910 103.039519,226.408748 100.050160,230.209103L98.100319,232.687923L104.556845,237.428635C110.587896,241.856942 111.854594,244.000000 108.440983,244.000000C106.578961,244.000000 106.570618,245.898000 108.429505,246.611322C109.215732,246.913026 114.728232,247.508775 120.679505,247.935208C126.630777,248.361641 132.111284,248.775670 132.858408,248.855271C133.824015,248.958150 134.035378,248.277093 133.589356,246.500000zM100.999185,245.250000C100.998738,244.837500 100.146317,242.250000 99.104918,239.500000C97.233248,234.557525 97.157018,234.496434 92.479029,234.190034C86.802793,233.818251 83.628022,231.930393 81.977326,227.945261C80.599451,224.618776 81.297471,219.433767 83.442212,217.063856C84.686889,215.688503 84.066607,214.210292 78.379277,204.998238C64.076422,181.831186 48.823971,151.668097 39.231988,127.580966L35.423982,118.018404L29.450396,124.259202C26.164923,127.691641 21.825610,132.300000 19.807478,134.500000L16.138147,138.500000L19.038872,153.500000C20.634272,161.750000 23.380576,174.687500 25.141770,182.250000C28.102210,194.962011 28.516134,196.000000 30.624918,196.000000C36.708969,196.000000 41.911009,202.039895 40.614145,207.598120C40.241753,209.194154 39.838728,211.128050 39.718534,211.895666C39.582398,212.765102 42.111742,214.371389 46.426857,216.155856C54.741001,219.594077 54.832094,219.671073 52.555352,221.335867C50.901215,222.545402 51.148109,222.936522 55.628353,226.204005C72.516987,238.521040 83.900344,243.543680 100.250000,245.892265C100.662500,245.951519 100.999633,245.662500 100.999185,245.250000zM173.656644,241.250000C176.935930,237.082815 177.191358,235.563687 174.129610,238.437091C171.178512,241.206651 170.199932,243.000000 171.639757,243.000000C171.991624,243.000000 172.899223,242.212500 173.656644,241.250000zM178.831530,228.654292C178.536545,226.288538 177.967522,226.849989 173.669402,233.747727L168.838803,241.500000L174.000932,236.406565C178.074425,232.387278 179.093144,230.752411 178.831530,228.654292zM173.504410,230.545013C176.390880,225.913862 178.023879,222.220710 177.815562,220.795013C177.536690,218.886440 176.860710,219.543916 173.801016,224.699661C170.616890,230.065081 167.460037,238.000000 168.509568,238.000000C168.701162,238.000000 170.948841,234.645256 173.504410,230.545013zM162.526490,233.250000C162.935308,231.737500 163.179997,224.762500 163.070244,217.750000C162.960492,210.737500 163.249660,205.000000 163.712841,205.000000C164.176021,205.000000 165.504548,205.665098 166.665123,206.477996C168.629775,207.854092 168.808238,207.783468 169.253614,205.453638C169.598439,203.649803 168.637435,201.422784 165.810949,197.475641C161.588923,191.579652 160.633283,191.045969 159.124693,193.741670C157.851683,196.016413 157.697134,195.806533 154.160362,187.000000C152.199085,182.116436 150.686363,179.643040 149.824152,179.910024C143.585088,181.841953 137.193507,180.098606 134.916426,175.843840C134.279258,174.653281 133.983211,171.526531 134.247364,168.777436L134.721165,163.846492L98.378646,127.589568L62.036126,91.332643L60.041219,93.456124L58.046312,95.579605L73.330363,118.539803C93.286117,148.517983 124.702009,192.903334 126.013932,192.972791C126.296595,192.987756 127.640325,191.200000 129.000000,189.000000C130.359675,186.800000 131.703405,185.003786 131.986068,185.008414C132.268731,185.013042 135.546278,192.700244 139.269506,202.091086C145.522685,217.863046 146.579646,219.807356 153.127183,227.582672C157.025677,232.212202 160.568115,236.000000 160.999269,236.000000C161.430422,236.000000 162.117671,234.762500 162.526490,233.250000zM97.685549,229.825686C100.935588,226.772432 100.867692,220.776783 97.545455,217.454545C94.104878,214.013969 89.652705,214.193449 85.923077,217.923077C82.193449,221.652705 82.013969,226.104878 85.454545,229.545455C88.671103,232.762012 94.419773,232.893723 97.685549,229.825686zM206.305436,201.151273C212.462446,193.809474 218.305902,186.537704 219.290894,184.991784L221.081788,182.181022L212.319724,176.157310L203.557660,170.133598L199.951593,180.316799C195.507467,192.866600 190.085589,205.241876 184.921249,214.623108C182.200128,219.566135 181.013325,222.932769 181.043537,225.623108L181.087074,229.500000L188.098973,222.000000C191.955517,217.875000 200.148425,208.493073 206.305436,201.151273zM274.685549,217.825686C279.905031,212.922237 276.078861,203.000000 268.968531,203.000000C264.716109,203.000000 260.000000,207.716109 260.000000,211.968531C260.000000,218.973821 269.451038,222.743254 274.685549,217.825686zM184.222625,212.250000C189.887195,201.755727 196.588483,185.753024 200.559333,173.237878L201.911634,168.975755L193.759301,163.517727C189.275518,160.515811 185.496127,158.170539 185.360655,158.306012C185.225182,158.441485 183.937737,165.515553 182.499665,174.026163C181.061594,182.536773 179.010867,193.432736 177.942495,198.239413C175.346888,209.917220 175.309446,209.679017 179.660776,209.171023L183.321553,208.743648L181.160776,212.239858C178.984387,215.761331 178.327462,219.000000 179.789565,219.000000C180.223825,219.000000 182.218702,215.962500 184.222625,212.250000zM36.076923,212.076923C41.774481,206.379366 38.371395,198.000000 30.359906,198.000000C25.183699,198.000000 22.000000,201.130331 22.000000,206.219769C22.000000,214.369884 30.321525,217.832321 36.076923,212.076923zM175.851974,171.000000L178.617181,153.500000L176.558590,151.934503C166.024206,143.923413 148.909157,133.092585 148.526701,134.195227C148.277790,134.912852 147.591159,140.894568 147.000855,147.487929C146.142613,157.074010 146.183349,159.561116 147.204173,159.901391C149.562105,160.687368 153.891215,165.718385 154.583681,168.477387C155.019020,170.211917 154.683604,172.440278 153.665967,174.574284L152.062150,177.937524L159.572608,183.181325C166.144479,187.769807 166.823679,188.521081 165.007486,189.192934C163.016741,189.929359 163.085523,190.166504 166.690332,194.995002L170.448756,200.029262L171.767762,194.264631C172.493215,191.094084 174.331111,180.625000 175.851974,171.000000zM238.259664,157.593088C256.123304,129.317918 269.078647,100.464523 277.070787,71.155191L279.891635,60.810382L277.445818,61.424243C276.100618,61.761867 275.006330,61.692031 275.014066,61.269052C275.021802,60.846073 276.803362,57.243464 278.973089,53.263254L282.918046,46.026507L280.709023,44.896214C277.891262,43.454446 275.050944,39.963640 275.022236,37.907042C275.003169,36.541108 272.625692,36.220443 258.340288,35.657042C249.177447,35.295669 235.677447,35.000000 228.340288,35.000000C216.345787,35.000000 214.988383,35.176542 214.884846,36.750000C214.636657,40.521717 215.249358,42.638864 217.577346,46.053751C221.277723,51.481771 220.826086,55.523835 216.006993,60.108129C212.632967,63.317762 212.152113,64.262613 212.905034,66.203293C213.395110,67.466482 214.756016,70.914811 215.929269,73.866246L218.062455,79.232491L215.745510,78.650975L213.428565,78.069459L213.836139,91.150710C214.508952,112.744900 211.435465,140.381287 206.093549,160.771038L204.188608,168.042076L207.344304,170.376658C209.079937,171.660678 213.195918,174.517249 216.490929,176.724595L222.481859,180.737950L226.866575,174.712063C229.278169,171.397825 234.405059,163.694286 238.259664,157.593088zM150.411106,175.923275C153.239020,172.562490 153.627267,170.046256 151.836657,166.684259C149.055944,161.463272 142.953256,160.415811 138.355764,164.370408C132.432331,169.465531 136.415091,179.000000 144.466870,179.000000C146.985993,179.000000 148.467418,178.233217 150.411106,175.923275zM207.415962,146.000000C210.711450,129.075369 212.000000,114.800777 212.000000,95.217914L212.000000,78.783184L209.379459,79.440898C206.840660,80.078096 206.779688,79.987899 207.424772,76.549306C208.172639,72.562835 207.433503,72.259027 201.000000,73.908526C199.075000,74.402081 196.336788,75.064499 194.915084,75.380568C191.308585,76.182352 190.209254,82.091827 189.498040,104.500000C189.183824,114.400000 188.277167,128.575000 187.483248,136.000000C185.225472,157.115469 184.689171,155.087477 194.218005,161.467080L202.436010,166.969077L203.709014,162.734538C204.409167,160.405542 206.077293,152.875000 207.415962,146.000000zM141.532598,160.402462C143.552860,159.895409 143.959471,159.026373 144.454899,154.156727C144.771427,151.045527 145.499432,144.723369 146.072689,140.107487C146.645946,135.491605 146.751605,131.397642 146.307487,131.009791C145.863369,130.621940 139.200000,125.891133 131.500000,120.496888C123.800000,115.102642 107.926211,103.733087 96.224912,95.231209L74.949825,79.773249L69.724912,84.636625C66.851211,87.311481 64.500000,89.803052 64.500000,90.173450C64.500000,90.543847 74.175000,100.862286 86.000000,113.103313C111.945923,139.962065 135.816329,162.284459 137.784234,161.529303C138.555096,161.233495 140.241860,160.726417 141.532598,160.402462zM180.464920,135.293195C181.309214,127.479452 182.000000,117.418168 182.000000,112.934787L182.000000,104.783184L179.500000,105.410644C176.491165,106.165813 176.497692,106.272439 179.000000,97.242559C181.423024,88.498785 181.414823,89.000000 179.134859,89.000000C176.239606,89.000000 172.263709,85.329075 170.994839,81.484363C169.871711,78.081250 169.719829,78.000000 164.481465,78.000000C161.531578,78.000000 158.836550,78.455450 158.492514,79.012112C157.152234,81.180732 148.417942,129.767897 149.227376,130.552268C151.214469,132.477833 178.558540,150.683478 178.714920,150.185035C178.833125,149.808266 179.620625,143.106938 180.464920,135.293195zM32.258848,110.114986C28.689887,100.856289 16.000000,62.108699 16.000000,60.469849C16.000000,58.547632 14.024759,57.575241 12.736661,58.863339C11.951229,59.648771 11.278504,59.646101 10.323794,58.853762C8.644603,57.460157 8.545266,66.663691 10.030254,86.050106C11.126017,100.355226 14.738860,131.533034 15.579579,133.939202C15.922444,134.920497 19.061489,132.411740 25.445586,126.054188L34.808734,116.729972L32.258848,110.114986zM148.443951,121.772377C148.832992,118.322570 150.688375,107.625000 152.567025,98.000000C156.551775,77.584682 156.409206,79.000000 154.480948,79.000000C153.397524,79.000000 153.126570,78.343886 153.536121,76.712105C154.091018,74.501219 153.561518,74.300332 137.805173,70.743942C128.837328,68.719794 116.047140,65.600382 109.382533,63.811913L97.265065,60.560152L87.132533,69.384577C81.559640,74.238011 77.000000,78.362375 77.000000,78.549829C77.000000,78.940777 112.944826,105.057779 133.000000,119.238637C140.425000,124.488797 146.778236,128.617966 147.118302,128.414568C147.458368,128.211170 148.054910,125.222184 148.443951,121.772377zM45.285237,106.023962C45.896310,105.483551 34.322542,86.199852 18.862758,62.000000C18.167240,60.911276 18.072514,61.185461 18.517274,63.000000C19.684311,67.761294 32.219270,105.345726 34.115823,109.770204L36.020676,114.214045L40.260338,110.466222C42.592152,108.404919 44.853357,106.405902 45.285237,106.023962zM55.418919,83.471896C52.163513,79.822805 47.565983,74.736318 45.202184,72.168592L40.904368,67.500000L43.298875,71.500000C44.615854,73.700000 48.292426,79.707445 51.469035,84.849878L57.244689,94.199756L59.291263,92.153181L61.337838,90.106607L55.418919,83.471896zM636.545455,87.545455C641.859722,82.231187 638.138400,73.000000 630.681818,73.000000C628.331766,73.000000 626.453737,73.818990 624.636364,75.636364C619.145548,81.127180 622.767680,90.000000 630.500000,90.000000C632.979237,90.000000 634.850786,89.240123 636.545455,87.545455zM72.783346,78.881929C72.290496,77.458852 33.799667,49.000000 32.367792,49.000000C28.241228,49.000000 32.511209,55.283626 49.500000,74.211445L62.500000,88.695209L67.783346,84.197643C70.689186,81.723981 72.939186,79.331910 72.783346,78.881929zM187.499703,83.817984C194.552190,75.436579 182.687631,65.158523 174.923077,72.923077C171.297836,76.548317 171.196275,79.891377 174.588894,83.923275C178.293329,88.325746 183.744075,88.281294 187.499703,83.817984zM81.693000,71.725788C84.886850,68.824972 89.209589,64.994325 91.299088,63.213240C93.706026,61.161570 94.622134,59.812700 93.799088,59.532259C93.084589,59.288805 79.675000,54.826270 64.000000,49.615516C48.325000,44.404762 32.203887,38.771260 28.175305,37.096623C23.928180,35.331140 21.020722,34.566144 21.255481,35.275914C21.714137,36.662610 24.279651,38.119186 31.500000,41.092260C36.023822,42.955004 36.329763,43.276040 34.712466,44.463226C33.087633,45.655945 33.679262,46.363301 41.212466,52.234674C54.512405,62.600636 74.204012,77.000000 75.079869,77.000000C75.523241,77.000000 78.499150,74.626605 81.693000,71.725788zM179.103898,68.367395L183.063017,67.734307L182.781509,56.630418L182.500000,45.526529L176.000000,43.763533C168.583206,41.751875 167.464410,41.921813 166.754571,45.167855C166.474076,46.450535 165.068655,52.000000 163.631412,57.500000C162.194170,63.000000 161.014139,68.002235 161.009122,68.616079C161.004105,69.229922 163.350540,70.625292 166.223422,71.716902L171.446845,73.701646L173.295812,71.351065C174.429053,69.910383 176.677337,68.755418 179.103898,68.367395zM197.723095,67.778888C203.696980,61.858103 204.000000,61.689139 204.000000,64.278888C204.000000,67.468883 205.926169,67.844052 208.380461,65.132090C209.991767,63.351616 209.927395,63.235479 207.005276,62.651055C205.319185,62.313837 202.877042,60.891352 201.578291,59.489977L199.216927,56.942023L194.608464,63.400206C190.492930,69.167609 188.721611,74.000000 190.723095,74.000000C191.120797,74.000000 194.270797,71.200500 197.723095,67.778888zM495.421996,71.750000C498.634717,68.896810 499.520888,63.907966 497.506813,60.013176C494.588552,54.369880 488.181526,53.293487 483.076725,57.588894C480.514968,59.744470 480.000000,60.901219 480.000000,64.500000C480.000000,68.098781 480.514968,69.255530 483.076725,71.411106C486.993983,74.707262 491.939229,74.843015 495.421996,71.750000zM155.000000,71.112204C155.000000,69.575600 151.883949,68.108918 138.250000,63.228211C129.037500,59.930303 118.299456,56.211190 114.387681,54.963517L107.275362,52.695020L103.665538,55.575367C101.680134,57.159557 100.380678,58.767369 100.777857,59.148282C101.375873,59.721807 151.876308,72.746157 154.250000,72.939052C154.662500,72.972573 155.000000,72.150492 155.000000,71.112204zM209.000000,68.877555C209.000000,67.111296 208.750120,66.962492 207.511010,67.990862C206.006016,69.239896 206.326556,71.000000 208.059017,71.000000C208.576558,71.000000 209.000000,70.044900 209.000000,68.877555zM162.462984,54.422561C164.333592,47.332068 165.780178,41.446845 165.677620,41.344286C165.393268,41.059935 135.864007,35.202644 132.902633,34.843188C130.454813,34.546068 123.723660,38.999560 112.500000,48.342058L109.500000,50.839237L112.000000,51.774283C113.375000,52.288558 121.025000,55.027052 129.000000,57.859825C136.975000,60.692597 146.875000,64.271696 151.000000,65.813377C155.125000,67.355058 158.626423,68.323469 158.780939,67.965400C158.935455,67.607332 160.592375,61.513054 162.462984,54.422561zM194.855109,60.091052C200.133715,52.565882 200.210121,50.430075 195.250000,49.052581C193.187500,48.479796 191.162500,48.008644 190.750000,48.005577C190.337500,48.002510 190.000000,52.050000 190.000000,57.000000C190.000000,61.950000 190.159799,66.000000 190.355109,66.000000C190.550419,66.000000 192.575419,63.340973 194.855109,60.091052zM216.184248,58.020791C220.678346,52.470814 216.639985,44.000000 209.500000,44.000000C201.824486,44.000000 198.063651,53.154560 203.504132,58.595041C205.571390,60.662299 206.737534,61.026247 210.188380,60.681162C212.961561,60.403844 214.979637,59.508422 216.184248,58.020791zM101.233535,55.082645C103.029333,53.478099 104.273932,51.949983 103.999311,51.686830C102.347408,50.103916 64.094336,39.582720 47.500000,36.147156C38.617789,34.308251 38.495671,34.309306 38.169197,36.227796C37.987256,37.296958 38.082932,38.416265 38.381811,38.715144C39.253504,39.586837 94.322891,57.897625 96.234223,57.951300C97.188046,57.978085 99.437736,56.687190 101.233535,55.082645zM10.683114,47.812500C10.363888,47.014767 10.126931,47.251724 10.078947,48.416667C10.035526,49.470833 10.271875,50.061458 10.604167,49.729167C10.936458,49.396875 10.971985,48.534375 10.683114,47.812500zM117.531653,42.042644C126.418908,35.124227 126.944593,34.521365 124.805609,33.700792C122.290377,32.735880 97.442592,31.500718 61.660443,30.561899C35.709312,29.881018 32.908964,30.808254 49.606723,34.553062C62.209475,37.379482 83.627744,43.100480 96.000000,46.945092C101.225000,48.568733 106.051720,49.807804 106.726043,49.698583C107.400367,49.589362 112.262892,46.144190 117.531653,42.042644zM202.103529,45.050317C203.725855,43.427991 205.696278,40.277991 206.482247,38.050317L207.911282,34.000000L198.455641,34.000000L189.000000,34.000000L189.015313,38.750000C189.033570,44.413406 189.566690,45.366921 193.500000,46.771109C198.074200,48.404093 198.918652,48.235194 202.103529,45.050317zM291.545455,41.545455C296.872813,36.218096 293.048129,26.600000 285.602319,26.600000C283.040077,26.600000 281.228391,27.333367 279.549923,29.050000C273.894691,34.833817 277.542818,44.000000 285.500000,44.000000C287.979237,44.000000 289.850786,43.240123 291.545455,41.545455zM182.000000,38.623830L182.000000,34.247660L176.250000,33.749508C173.087500,33.475524 170.344873,33.387428 170.155272,33.553739C169.965672,33.720049 169.740672,35.319307 169.655272,37.107645C169.509831,40.153294 169.784923,40.436556 174.000000,41.581409C181.682667,43.668091 182.000000,43.550774 182.000000,38.623830zM212.000000,39.691130C212.000000,38.421251 211.424804,36.595632 210.721787,35.634199C209.579691,34.072289 209.328262,34.318159 208.360718,37.943070C207.318995,41.845890 207.367551,42.000000 209.638931,42.000000C211.438618,42.000000 212.000000,41.451029 212.000000,39.691130zM167.900320,34.250000C167.976549,33.294074 164.177036,33.019544 151.750000,33.083075L135.500000,33.166150L151.000000,36.335902C166.261320,39.456843 166.510014,39.474812 167.150320,37.502826C167.507996,36.401272 167.845496,34.937500 167.900320,34.250000zM28.916667,34.627176C27.493865,33.354087 22.000000,31.093608 22.000000,31.781278C22.000000,32.239229 23.237500,33.102914 24.750000,33.700578C27.590998,34.823196 29.646638,35.280337 28.916667,34.627176zM266.235006,33.254734C257.360622,32.938472 257.014621,32.841197 258.028130,30.947439C258.819404,29.468929 258.760139,28.851362 257.793124,28.498596C255.100498,27.516328 227.300188,21.136893 222.906153,20.492960L218.312305,19.819746L217.156153,25.576654C216.520269,28.742954 216.000000,31.698794 216.000000,32.145189C216.000000,32.881582 237.847713,33.514797 265.000000,33.565362L275.500000,33.584916L266.235006,33.254734zM181.629587,28.250000C181.329173,26.187500 180.797391,22.137500 180.447851,19.250000C179.611928,12.344555 178.000000,12.509182 178.000000,19.500000C178.000000,24.590607 176.989338,26.409799 175.500000,24.000000C174.306011,22.068085 173.233725,23.037632 172.241631,26.946173C171.133046,31.313657 171.467665,31.563122 178.837898,31.863818C182.142864,31.998656 182.170407,31.963002 181.629587,28.250000zM208.000000,30.610009C208.000000,28.864179 199.369152,17.047376 197.720681,16.536225C197.049306,16.328048 194.338287,15.949782 191.696192,15.695633C186.962570,15.240296 186.899566,15.272017 187.383884,17.866772C187.654209,19.315048 188.160803,23.087500 188.509648,26.250000L189.143913,32.000000L198.571956,32.000000C205.954143,32.000000 208.000000,31.698376 208.000000,30.610009zM214.356953,30.512179C214.670964,29.693878 215.227083,26.768878 215.592772,24.012179C216.203043,19.411735 216.089503,19.000000 214.210618,19.000000C213.084744,19.000000 211.503874,18.746849 210.697574,18.437442C209.500105,17.977931 209.312712,18.756417 209.674540,22.687442C209.918173,25.334349 210.324643,28.512500 210.577806,29.750000C211.097327,32.289488 213.489779,32.771998 214.356953,30.512179zM170.325320,26.558637C171.836625,22.123202 171.835386,22.116863 169.396977,21.808637L166.955309,21.500000L169.430046,17.873117L171.904782,14.246233L168.328106,13.665818C165.427854,13.195172 164.410251,13.502850 162.947410,15.292702L161.143390,17.500000L160.286074,15.213375C159.459020,13.007465 159.015260,13.230533 147.714379,21.532893C141.271471,26.266271 136.000000,30.332752 136.000000,30.569518C136.000000,30.806283 143.382699,31.000000 152.405998,31.000000L168.811996,31.000000L170.325320,26.558637zM144.045707,21.750000L155.066395,13.500000L150.783197,12.824123C135.336586,10.386690 88.173252,13.480390 56.000000,19.041470C38.407677,22.082267 39.149024,21.853865 39.724815,24.055694C40.193439,25.847714 41.191024,26.000000 52.461421,26.000000C65.056452,26.000000 91.901769,27.592126 102.500000,28.967657C105.800000,29.395960 114.018129,29.803452 120.762510,29.873195L133.025019,30.000000L144.045707,21.750000zM70.783522,28.266330C68.189459,28.061084 63.689459,28.058954 60.783522,28.261596C57.877585,28.464237 60.000000,28.632166 65.500000,28.634769C71.000000,28.637373 73.377585,28.471575 70.783522,28.266330zM208.245763,22.725074C207.949683,20.349030 207.055301,18.564780 205.832245,17.910220C202.286406,16.012545 202.089429,17.444994 205.236446,22.242974C206.947462,24.851610 208.430358,26.876610 208.531771,26.742974C208.633183,26.609339 208.504480,24.801283 208.245763,22.725074zM204.980772,13.476832C203.943010,12.226405 203.512757,12.170341 202.874894,13.202426C202.362112,14.032124 202.690646,14.724631 203.786622,15.124234C206.110454,15.971524 206.549036,15.366474 204.980772,13.476832zM4.345077,12.456872C4.019392,11.608151 3.538454,11.128212 3.276326,11.390341C3.014198,11.652469 3.096348,12.346877 3.458881,12.933469C4.444931,14.528930 5.021261,14.218979 4.345077,12.456872zM9.606989,12.418213C9.273145,11.548229 8.993109,9.185729 8.984687,7.168213C8.973264,4.431686 8.723164,3.880984 8.000000,5.000000C7.466844,5.825000 7.023735,8.187500 7.015313,10.250000C7.003945,13.033981 7.413968,14.000000 8.606989,14.000000C9.661510,14.000000 10.005300,13.456196 9.606989,12.418213zM196.000000,13.196167C196.000000,11.507594 189.079419,5.755547 187.689518,6.288902C186.047653,6.918944 186.567992,12.012820 188.399029,13.234687C189.891734,14.230782 196.000000,14.199826 196.000000,13.196167zM195.809220,8.000000C193.103607,3.647581 191.000000,1.714968 191.000000,3.581703C191.000000,4.235919 198.052693,13.000000 198.579157,13.000000C198.765185,13.000000 197.518713,10.750000 195.809220,8.000000zM175.375325,9.549934C176.893560,7.232814 176.859104,7.013432 174.740335,5.506916C172.605679,3.989104 172.372235,4.065174 169.791456,7.119550C166.676102,10.806600 166.957932,12.000000 170.944007,12.000000C172.839536,12.000000 174.298536,11.193322 175.375325,9.549934zM180.000000,10.500000C180.000000,9.675000 179.550000,9.000000 179.000000,9.000000C178.450000,9.000000 178.000000,9.675000 178.000000,10.500000C178.000000,11.325000 178.450000,12.000000 179.000000,12.000000C179.550000,12.000000 180.000000,11.325000 180.000000,10.500000z"/></svg>