<?xml version="1.0" encoding="UTF-8" standalone="no" ?>
<!DOCTYPE svg PUBLIC "-//W3C//DTD SVG 1.1//EN" "http://www.w3.org/Graphics/SVG/1.1/DTD/svg11.dtd">
<svg xmlns="http://www.w3.org/2000/svg" xmlns:xlink="http://www.w3.org/1999/xlink" version="1.1" width="1080" height="1080" viewBox="0 0 1080 1080" xml:space="preserve">
<desc>Created with Fabric.js 5.2.4</desc>
<defs>
</defs>
<g transform="matrix(1 0 0 1 540 540)" id="646fdb3b-7ceb-47f8-862b-d101686aa536"  >
<rect style="stroke: none; stroke-width: 1; stroke-dasharray: none; stroke-linecap: butt; stroke-dashoffset: 0; stroke-linejoin: miter; stroke-miterlimit: 4; fill: rgb(255,255,255); fill-rule: nonzero; opacity: 1; visibility: hidden;" vector-effect="non-scaling-stroke"  x="-540" y="-540" rx="0" ry="0" width="1080" height="1080" />
</g>
<g transform="matrix(1 0 0 1 540 540)" id="8e2772b4-dc03-42d1-974d-d0388e9965a4"  >
</g>
<g transform="matrix(1.67 0 0 1.67 540 363.08)" id="d7e62478-70ea-45c5-97d2-322939bc0ed9"  >
<path style="stroke: rgb(0,0,0); stroke-width: 0; stroke-dasharray: none; stroke-linecap: butt; stroke-dashoffset: 0; stroke-linejoin: miter; stroke-miterlimit: 4; fill: rgb(175,175,175); fill-rule: nonzero; opacity: 1;" vector-effect="non-scaling-stroke"  transform=" translate(-320.41, -215.88)" d="M 177.255197 431.41147 C 177.751518 430.915149 176.272106 426.384136 172.419242 416.600324 C 171.769414 414.950174 172.01165 414.786108 174.26342 415.351266 C 176.845864 415.999418 176.853942 415.981983 176.394759 410.750942 C 172.002902 360.718588 168.28836 321.333047 165.47802 295 C 163.570347 277.125 162.007381 262.213575 162.004762 261.863499 C 162.002143 261.513424 160.610151 261.023012 158.911446 260.773695 C 156.147371 260.368015 155.431895 260.855119 152.101186 265.410196 C 121.726512 306.950592 114.146187 316.018982 88.076863 342.002892 C 71.268833 358.755852 61.914088 367.188002 51.4662 375.002892 C 43.74761 380.776302 36.32261 386.233967 34.9662 387.131038 C 32.613489 388.687019 32.579319 388.850366 34.223663 390.680677 C 35.889991 392.535458 35.790199 392.640734 31.223663 393.845547 C 17.850615 397.373828 18.765855 396.930956 19.424455 399.555026 C 20.210654 402.687495 17.860532 408.283852 14.883127 410.369307 C 9.867463 413.882415 0 410.88659 0 405.850695 C 0 404.121368 0.355002 404.268446 2.588894 406.923275 C 9.086396 414.645117 21.178345 407.046922 16.571026 398.137348 C 14.779292 394.672518 12.245527 393 8.788248 393 C 5.841698 393 2.122028 395.555742 0.991581 398.356999 C 0.192145 400.338006 0.121981 400.29101 0.063386 397.735302 C 0.015665 395.65386 0.803192 394.480887 3.25 392.98904 C 7.41865 390.447364 10.639813 390.483093 14.963649 393.118967 L 18.427297 395.230458 L 24.140676 388.865229 C 29.559129 382.828575 29.898199 382.617559 30.709227 384.777375 C 31.552361 387.022694 31.667001 386.984069 38.853363 382.033461 C 59.914226 367.524858 87.292529 342.6601 106.60716 320.5 C 121.389815 303.539535 148.379389 269.046056 147.531196 268.197863 C 147.333249 267.999916 146.165316 268.376342 144.93579 269.034364 C 141.824101 270.69969 134.199441 270.527999 129.809471 268.693752 C 126.276734 267.21768 125.741668 267.288513 116.315435 270.480114 C 80.568776 282.583474 42.612896 283.727971 14.124273 273.561522 C 8.503513 271.555697 8 271.591747 8 274 C 8 276.681181 7.102326 276.489321 3.25 272.984783 C -0.803139 269.297561 -1.425331 264.076814 2.25 264.593896 C 12.337044 266.01304 12.308617 266.0015 10.537882 267.95814 C 8.965785 269.695289 9.101686 269.8682 13.190445 271.333068 C 20.002964 273.773769 23.868875 274.790069 33.5 276.672194 C 45.828275 279.0814 71.762562 279.034497 85.5 276.57815 C 94.697597 274.933558 114.657568 269.644406 121.275157 267.098166 L 124.050313 266.030373 L 117.275157 259.579528 C 111.183824 253.779774 109.793483 252.957367 103.5 251.431313 C 99.65 250.497759 93.875533 248.685309 90.66785 247.403646 C 87.460168 246.121984 80.710168 244.168502 75.66785 243.062575 C 63.484177 240.390343 47.855263 235.844416 37.731655 232.028208 C 25.662327 227.478539 0 214.804546 0 213.39347 C 0 212.710527 4.604968 214.58285 10.510304 217.66683 C 24.89832 225.180774 42.824057 232.288121 59.341914 237.027998 C 66.954966 239.212599 73.704966 240.995777 74.341914 240.990616 C 74.978861 240.985455 73.25 239.674258 70.5 238.076846 C 67.75 236.479433 61.901571 232.68126 57.503491 229.636461 C 50.190733 224.573826 49.445308 224.26718 48.785715 226.050231 C 48.389018 227.122604 47.898388 228 47.695425 228 C 47.492463 228 45.187423 224.897718 42.573114 221.106041 C 37.87732 214.29547 37.787651 214.228869 35.159913 215.59988 C 30.669728 217.942615 27.142835 217.342835 23.4 213.6 C 20.604556 210.804556 20 209.447519 20 205.968077 C 20 202.472885 20.5765 201.192444 23.311527 198.612982 L 26.623055 195.48981 L 23.893675 184.610405 C 22.392517 178.626732 19.692985 166.091986 17.894716 156.755414 L 14.625135 139.77983 L 10.062568 145.115568 C 1.934708 154.62077 0.059149 156.521644 0.029313 155.28424 C 0.013191 154.615572 3.210631 150.430895 7.134736 145.984959 L 14.269471 137.901438 L 12.620432 126.200719 C 10.299739 109.734307 8.244921 88.761382 7.438375 73.308995 C 6.897684 62.950048 6.427458 59.994273 5.248183 59.541742 C 3.181904 58.748837 1.19943 60.618821 0.709193 63.82318 C 0.483952 65.295431 0.23224 62.588222 0.149832 57.80716 C 0.026741 50.665786 0.365317 48.495154 2.046866 45.645142 C 3.377541 43.389815 3.724966 41.948053 3.039803 41.524599 C 2.460142 41.166349 1.799705 41.464258 1.572165 42.186618 C 1.344625 42.908978 0.93333 44.175 0.658175 45 C 0.383021 45.825 0.122368 44.610462 0.078947 42.301027 L 0 38.102053 L 3.661656 39.631991 C 5.916654 40.574189 8.590819 40.924142 10.622746 40.542951 C 14.246462 39.863137 19.951711 34.815648 20.083333 32.173077 C 20.129167 31.252885 20.277406 29.508629 20.412755 28.296954 C 20.813855 24.706205 18.344028 20.180177 14.806555 18.023433 C 10.940924 15.666616 4.767219 15.375638 2.690476 17.452381 C 1.129123 19.013734 0 18.519331 0 16.274316 C 0 15.508524 0.45 15.160081 1 15.5 C 1.55 15.839919 2 15.668034 2 15.118034 C 2 14.568034 1.55 13.839919 1 13.5 C 0.45 13.160081 0 9.983524 0 6.440983 L 0 0 L 10 0 C 15.5 0 20 0.349872 20 0.777494 C 20 1.205115 19.394911 2.442615 18.655357 3.527494 C 17.915804 4.612372 16.073044 7.6375 14.560336 10.25 C 12.4413 13.909648 12.153572 15 13.30688 15 C 14.160728 15 16.456943 11.779851 18.651902 7.504289 C 20.768356 3.381648 23.0625 0.006648 23.75 0.004289 C 24.4375 0.00193 24.946711 0.3375 24.881579 0.75 C 24.426473 3.632339 25.133746 4.254063 26.556704 2.222506 C 27.412891 1.000128 28.841332 0 29.731018 0 C 31.035177 0 30.902776 0.474588 29.047742 2.449181 L 26.746857 4.898361 L 29.359344 5.554054 C 31.864086 6.182704 31.694026 6.412277 25.235916 11.120484 C 19.025216 15.64832 16.556743 18.912347 19.875821 18.20806 C 20.632523 18.047492 26.514787 13.884992 32.94752 8.95806 C 39.380253 4.031127 45.286133 0.010006 46.071699 0.022236 C 47.708055 0.047711 46.964346 0.677625 31.75 12.15259 C 18.468893 22.169467 17.349448 25.317213 28.080433 22.470976 C 56.205271 15.011275 111.88212 9.116042 142.880157 10.315635 C 156.105666 10.827449 157.996918 10.717404 156.380157 9.53012 C 154.224865 7.94736 154.37589 7.860731 165.25 4.442333 C 168.425444 3.444096 171 2.044901 171 1.317378 C 171 -0.572807 171.485934 -0.360219 174.846154 3 C 179.037607 7.191453 184.004116 7.14973 188.266591 2.887256 L 191.379335 -0.225489 L 200.248061 4.121589 C 207.836085 7.840921 208.823397 8.599581 207.08509 9.375235 C 205.148167 10.239515 205.130214 10.41185 206.700212 13.069646 C 208.371707 15.89926 210.589315 16.961707 214.875402 16.986345 C 217.225446 16.999854 217.246041 16.909265 216.804667 8.5 C 216.559292 3.825 216.700289 0 217.117993 0 C 218.217083 0 219.27013 8.135675 218.851818 13.395262 L 218.493342 17.90251 L 224.996671 19.011826 C 228.573502 19.62195 237.89025 21.589715 245.700554 23.384637 L 259.901109 26.648133 L 260.200554 24.385843 C 260.489246 22.204799 260.760846 22.28718 267.763269 26.679766 L 275.026539 31.235979 L 277.039355 28.677098 C 278.146404 27.269713 279.978567 25.82419 281.11083 25.464824 C 282.746904 24.945554 283.041752 24.266288 282.547212 22.155716 C 281.244511 16.596123 275.822415 7.072288 271.987435 3.607613 C 269.791177 1.623426 268.619214 0 269.383073 0 C 273.14405 0 281.286342 11.522697 284.045661 20.75 C 285.042115 24.082192 285.793156 25 287.523429 25 C 288.737198 25 290.866502 25.89375 292.255214 26.986111 L 294.780145 28.972222 L 300.594546 22.349531 C 304.146843 18.303409 306.554745 16.266291 306.783701 17.113419 C 306.989816 17.876039 307.33414 19.063698 307.548865 19.752662 C 307.79726 20.549662 314.286018 17.152478 325.387134 10.413449 C 334.983457 4.587918 343.559265 -0.02578 344.444484 0.160787 C 345.329703 0.347354 337.726026 5.424729 327.547423 11.443841 C 310.406041 21.580391 309.154821 22.513594 310.585579 24.094564 C 312.516819 26.22856 312.214811 26.398003 302.755817 28.487488 C 295.170069 30.163176 295.024623 30.252407 295.646494 32.849087 C 295.995666 34.307089 296.452632 35.697083 296.661973 35.937963 C 298.208248 37.717196 449.306121 60 459.824677 60 C 461.771438 60 462.129019 59.601372 461.689595 57.92101 C 461.33571 56.567752 461.556805 56.005358 462.322963 56.309931 C 462.970333 56.567282 466.613037 58.063716 470.417861 59.635339 C 475.851216 61.879645 477.433719 62.198843 477.792394 61.122817 C 478.043564 60.369307 479.445125 58.414177 480.906974 56.778084 C 482.894818 54.5533 484.713318 53.673924 488.120333 53.289904 C 492.173307 52.833075 493.071977 53.1243 496.267643 55.930131 C 498.243164 57.664662 500.151868 60.414964 500.509205 62.041912 C 500.866543 63.66886 501.30857 65 501.491487 65 C 501.674404 65 505.319804 64.331154 509.592375 63.513677 C 513.864946 62.696199 517.540991 62.207658 517.761364 62.42803 C 517.981736 62.648403 517.704927 63.682832 517.146233 64.726762 C 516.190964 66.511698 516.826802 66.699785 527.815212 67.882747 C 534.241846 68.574609 557.433904 71.380318 579.353119 74.117657 L 619.206239 79.094637 L 622.353119 75.476151 C 624.758353 72.710459 626.495046 71.726451 629.722076 71.300909 C 633.561582 70.794601 634.263824 71.063824 637.472076 74.272076 C 640.023432 76.823432 641 78.676312 641 80.965741 C 641 89.518262 633.323453 94.38265 625.472058 90.805315 C 622.853408 89.612178 620 85.370649 620 82.671221 C 620 81.663895 617.863876 80.92649 612.75 80.168472 C 603.898891 78.856492 545.13407 71.600045 528.279591 69.737826 L 516.059182 68.387617 L 516.637999 70.693808 C 516.956348 71.962214 517.004924 73 516.745946 73 C 516.486967 73 513.001291 71.65 509 70 C 504.998709 68.35 501.446667 67 501.106574 67 C 500.766481 67 499.935453 68.248794 499.259845 69.775099 C 496.1954 76.69816 486.022341 77.946235 480.75 72.045967 C 479.2375 70.353331 478 67.850546 478 66.484223 C 478 65.117901 477.8875 64.000615 477.75 64.001367 C 477.6125 64.002119 473.675 64.676504 469 65.5 C 464.325 66.323496 460.398638 66.997881 460.274751 66.998633 C 460.150864 66.999385 460.446529 65.95574 460.931784 64.679423 L 461.814065 62.358846 L 440.157033 59.63088 C 408.440383 55.635782 368.02132 49.745161 330.12503 43.594961 L 296.750061 38.178527 L 293.029867 42.089264 C 290.673648 44.566164 288.408931 46 286.852934 46 C 284.412461 46 284.401164 46.044692 285.146746 52.75 C 286.414998 64.155882 286.392877 64.303529 283.681865 62.527205 L 281.363729 61.008305 L 279.590412 68.754152 C 272.409079 100.122205 250.915051 145.124337 228.606201 175.5 L 224.199611 181.5 L 242.221972 193.294429 C 258.943 204.237222 260.370969 204.974253 261.998138 203.501685 C 264.816611 200.951002 270.353948 200.505295 273.816106 202.550443 C 277.264656 204.587551 279 207.777112 279 212.078438 C 279 214.014788 279.614532 215.283268 280.75 215.690681 C 286.598216 217.789059 353.629426 245.996433 375.196969 255.434869 C 389.365612 261.635382 401.192557 266.47411 401.479069 266.187598 C 401.765581 265.901086 402 264.786712 402 263.711212 C 402 262.153048 403.305636 262.902042 408.426313 267.397747 L 414.852626 273.039737 L 418.56586 270.519869 C 420.608138 269.133941 423.363645 268 424.689207 268 C 431.723692 268 437.110397 275.105433 434.976859 281.570117 C 432.774215 288.244196 424.62181 291.225116 419.116873 287.369307 C 416.297896 285.394819 413.691388 279.547712 414.4977 277.007247 C 415.207632 274.770449 414.081661 274.383367 404.192121 273.464436 C 397.093358 272.804823 396.933415 272.731057 398.602657 270.886565 C 399.547785 269.84221 400.119041 268.785708 399.872115 268.538781 C 398.668144 267.33481 345.029318 244.197638 301.279084 226.010558 L 279.058167 216.773268 L 275.952358 219.386634 C 273.793308 221.203355 271.685558 222 269.037955 222 L 265.22936 222 L 262.895879 230.456975 C 260.675297 238.504779 260.474748 238.834628 258.750816 237.274492 C 257.048736 235.73413 256.653961 235.912393 252.219618 240.223693 C 245.654733 246.606416 238.855967 250.629612 229.5 253.668114 C 218.44649 257.257921 198.284137 257.964776 182.91372 255.301344 L 172.32744 253.466922 L 171.172438 255.914353 C 170.270055 257.826487 170.307336 258.704976 171.34289 259.930892 C 172.071891 260.793901 183.174887 274.1 196.016215 289.5 C 230.419597 330.758355 267.123305 374 267.740206 374 C 268.036826 374 268.857632 373.2125 269.564219 372.25 C 270.917354 370.406785 270.912782 370.399227 276.551681 383.801072 C 277.750445 386.650147 278.209537 386.958227 279.904571 386.051072 C 284.435152 383.626379 290.653058 385.449798 293.334729 389.989504 C 296.051467 394.588575 295.483639 398.716361 291.6 402.6 C 286.830046 407.369954 282.135627 407.335627 277.295403 402.495403 C 274.237709 399.437709 273.853428 398.513196 274.281883 395.245403 C 274.551976 393.185431 275.082078 390.561879 275.459888 389.415286 C 276.038664 387.658797 275.111872 386.656279 269.573408 383.047827 C 265.958034 380.692318 263 378.530049 263 378.242784 C 263 377.95552 263.700072 377.20858 264.555715 376.582918 C 265.876647 375.61703 263.039745 371.82747 245.757941 351.472676 C 234.563521 338.287704 212.576285 312.165482 196.897415 293.423293 C 170.690923 262.096609 168.213225 259.425635 166.195189 260.326108 C 164.987835 260.864844 164 261.922001 164 262.675345 C 164 263.428689 165.561943 278.772422 167.470984 296.77253 C 171.19801 331.914177 176.453245 388.000251 177.595096 404.821296 C 178.287437 415.020428 178.32357 415.135605 180.647865 414.552244 C 183.446211 413.849904 183.441809 413.798278 181.36694 422.986082 C 179.985429 429.103602 179.94692 430.35242 181.11694 431.093435 C 182.09308 431.711658 181.641866 431.97388 179.583333 431.984687 C 177.979167 431.993109 176.931505 431.735161 177.255197 431.41147 z M 290.545455 401.545455 C 295.938182 396.152728 292.134079 387 284.5 387 C 279.623421 387 276 390.623421 276 395.5 C 276 403.134079 285.152728 406.938182 290.545455 401.545455 z M 430.086657 285.718197 C 434.674225 282.195974 435.081928 276.928082 431.076923 272.923077 C 425.895974 267.742128 417.801063 270.305784 416.410333 277.567984 C 415.529649 282.166798 419.873427 287.011331 424.838894 286.968197 C 426.852502 286.950705 429.213996 286.388205 430.086657 285.718197 z M 144.5 267.12116 C 148.352561 265.353879 154 260.517841 154 258.986081 C 154 258.578426 153.391154 257.739592 152.64701 257.122007 C 151.610075 256.261428 149.098899 257.013633 141.89701 260.342097 C 136.728654 262.730731 131.6 265.031952 130.5 265.45592 C 128.731084 266.137706 128.904397 266.378194 132 267.537308 C 136.855054 269.355229 139.84701 269.255621 144.5 267.12116 z M 137.368954 260.441427 C 143.0939 257.934213 148.615408 255.201925 149.638973 254.369678 C 151.36291 252.967967 151.242275 252.900439 148.001336 253.452983 C 140.640171 254.707978 124.255123 255.150413 118.729042 254.243403 C 113.007438 253.304302 112.973229 253.31328 114.729042 255.293152 C 116.562653 257.36075 125.881265 265 126.569779 265 C 126.78438 265 131.644009 262.948642 137.368954 260.441427 z M 168.411106 255.923275 C 172.033295 251.618548 171.908258 246.754412 168.076923 242.923077 C 165.912821 240.758974 164.205128 240 161.5 240 C 158.794872 240 157.087179 240.758974 154.923077 242.923077 C 151.091742 246.754412 150.966705 251.618548 154.588894 255.923275 C 156.74447 258.485032 157.901219 259 161.5 259 C 165.098781 259 166.25553 258.485032 168.411106 255.923275 z M 223.314567 253.521356 C 232.299714 251.617522 243.245822 246.216385 249.75 240.477323 C 252.6375 237.929493 255 235.498568 255 235.075267 C 255 234.651966 254.054538 233.883751 252.898972 233.368124 C 250.959818 232.502849 251.300037 232.012334 257.314837 227.001499 L 263.831729 221.57238 L 260.80242 218.122187 C 258.154261 215.106101 257.845242 214.145733 258.346402 210.489372 L 258.919695 206.30675 L 241.004895 194.749923 L 223.090096 183.193096 L 220.330426 186.846548 C 213.941758 195.304331 202.046594 209.254736 192.061299 220 C 186.183641 226.325 180.351057 233.635748 179.100002 236.246107 C 177.848947 238.856466 175.817307 241.785146 174.585247 242.754284 C 172.803884 244.155505 172.432844 245.267612 172.773413 248.184835 L 173.201688 251.853316 L 180.350844 252.980658 C 184.28288 253.600696 188.175 254.2565 189 254.437999 C 193.51908 255.432192 217.29368 254.797102 223.314567 253.521356 z M 134 251.5 C 134 250.33751 132.682966 250 128.146691 250 C 124.927371 250 119.414871 249.717053 115.896691 249.371229 C 110.648782 248.855379 109.720919 248.977524 110.730132 250.051361 C 112.247334 251.665717 118.356909 252.709927 127.25 252.874833 C 132.638963 252.974762 134 252.697547 134 251.5 z M 107.5 249 C 107.160081 248.45 106.233524 248 105.440983 248 C 104.648442 248 104 248.45 104 249 C 104 249.55 104.926558 250 106.059017 250 C 107.191476 250 107.839919 249.55 107.5 249 z M 102 248 C 101.175 247.466844 99.6 247.055363 98.5 247.085598 L 96.5 247.140571 L 98.5 248 C 99.6 248.472686 101.175 248.884167 102 248.914402 C 103.333333 248.963266 103.333333 248.861666 102 248 z M 133.589356 246.5 C 132.816585 243.421036 132.947372 243.421002 141.993668 246.497846 C 149.782382 249.146959 151.244355 249.095221 148.823873 246.256131 C 148.000413 245.290259 143.707839 240.225 139.284818 235 C 132.644438 227.15559 128.86948 223.852164 117.623594 216.044492 L 104.004226 206.588984 L 108.93716 204.748835 L 113.870094 202.908686 L 101.634378 186.204343 C 87.114572 166.381733 71.002768 143.170424 57.414903 122.5 C 51.991701 114.25 47.413693 107.296429 47.241553 107.047619 C 47.069413 106.79881 44.610949 108.91286 41.7783 111.745509 L 36.628029 116.89578 L 41.984942 129.69789 C 53.044983 156.129507 68.353072 185.967759 81.13065 206 L 85.91453 213.5 L 91.039294 213.5 C 95.563824 213.5 96.505823 213.882501 99.082029 216.765777 C 102.63113 220.73791 103.039519 226.408748 100.05016 230.209103 L 98.100319 232.687923 L 104.556845 237.428635 C 110.587896 241.856942 111.854594 244 108.440983 244 C 106.578961 244 106.570618 245.898 108.429505 246.611322 C 109.215732 246.913026 114.728232 247.508775 120.679505 247.935208 C 126.630777 248.361641 132.111284 248.77567 132.858408 248.855271 C 133.824015 248.95815 134.035378 248.277093 133.589356 246.5 z M 100.999185 245.25 C 100.998738 244.8375 100.146317 242.25 99.104918 239.5 C 97.233248 234.557525 97.157018 234.496434 92.479029 234.190034 C 86.802793 233.818251 83.628022 231.930393 81.977326 227.945261 C 80.599451 224.618776 81.297471 219.433767 83.442212 217.063856 C 84.686889 215.688503 84.066607 214.210292 78.379277 204.998238 C 64.076422 181.831186 48.823971 151.668097 39.231988 127.580966 L 35.423982 118.018404 L 29.450396 124.259202 C 26.164923 127.691641 21.82561 132.3 19.807478 134.5 L 16.138147 138.5 L 19.038872 153.5 C 20.634272 161.75 23.380576 174.6875 25.14177 182.25 C 28.10221 194.962011 28.516134 196 30.624918 196 C 36.708969 196 41.911009 202.039895 40.614145 207.59812 C 40.241753 209.194154 39.838728 211.12805 39.718534 211.895666 C 39.582398 212.765102 42.111742 214.371389 46.426857 216.155856 C 54.741001 219.594077 54.832094 219.671073 52.555352 221.335867 C 50.901215 222.545402 51.148109 222.936522 55.628353 226.204005 C 72.516987 238.52104 83.900344 243.54368 100.25 245.892265 C 100.6625 245.951519 100.999633 245.6625 100.999185 245.25 z M 173.656644 241.25 C 176.93593 237.082815 177.191358 235.563687 174.12961 238.437091 C 171.178512 241.206651 170.199932 243 171.639757 243 C 171.991624 243 172.899223 242.2125 173.656644 241.25 z M 178.83153 228.654292 C 178.536545 226.288538 177.967522 226.849989 173.669402 233.747727 L 168.838803 241.5 L 174.000932 236.406565 C 178.074425 232.387278 179.093144 230.752411 178.83153 228.654292 z M 173.50441 230.545013 C 176.39088 225.913862 178.023879 222.22071 177.815562 220.795013 C 177.53669 218.88644 176.86071 219.543916 173.801016 224.699661 C 170.61689 230.065081 167.460037 238 168.509568 238 C 168.701162 238 170.948841 234.645256 173.50441 230.545013 z M 162.52649 233.25 C 162.935308 231.7375 163.179997 224.7625 163.070244 217.75 C 162.960492 210.7375 163.24966 205 163.712841 205 C 164.176021 205 165.504548 205.665098 166.665123 206.477996 C 168.629775 207.854092 168.808238 207.783468 169.253614 205.453638 C 169.598439 203.649803 168.637435 201.422784 165.810949 197.475641 C 161.588923 191.579652 160.633283 191.045969 159.124693 193.74167 C 157.851683 196.016413 157.697134 195.806533 154.160362 187 C 152.199085 182.116436 150.686363 179.64304 149.824152 179.910024 C 143.585088 181.841953 137.193507 180.098606 134.916426 175.84384 C 134.279258 174.653281 133.983211 171.526531 134.247364 168.777436 L 134.721165 163.846492 L 98.378646 127.589568 L 62.036126 91.332643 L 60.041219 93.456124 L 58.046312 95.579605 L 73.330363 118.539803 C 93.286117 148.517983 124.702009 192.903334 126.013932 192.972791 C 126.296595 192.987756 127.640325 191.2 129 189 C 130.359675 186.8 131.703405 185.003786 131.986068 185.008414 C 132.268731 185.013042 135.546278 192.700244 139.269506 202.091086 C 145.522685 217.863046 146.579646 219.807356 153.127183 227.582672 C 157.025677 232.212202 160.568115 236 160.999269 236 C 161.430422 236 162.117671 234.7625 162.52649 233.25 z M 97.685549 229.825686 C 100.935588 226.772432 100.867692 220.776783 97.545455 217.454545 C 94.104878 214.013969 89.652705 214.193449 85.923077 217.923077 C 82.193449 221.652705 82.013969 226.104878 85.454545 229.545455 C 88.671103 232.762012 94.419773 232.893723 97.685549 229.825686 z M 206.305436 201.151273 C 212.462446 193.809474 218.305902 186.537704 219.290894 184.991784 L 221.081788 182.181022 L 212.319724 176.15731 L 203.55766 170.133598 L 199.951593 180.316799 C 195.507467 192.8666 190.085589 205.241876 184.921249 214.623108 C 182.200128 219.566135 181.013325 222.932769 181.043537 225.623108 L 181.087074 229.5 L 188.098973 222 C 191.955517 217.875 200.148425 208.493073 206.305436 201.151273 z M 274.685549 217.825686 C 279.905031 212.922237 276.078861 203 268.968531 203 C 264.716109 203 260 207.716109 260 211.968531 C 260 218.973821 269.451038 222.743254 274.685549 217.825686 z M 184.222625 212.25 C 189.887195 201.755727 196.588483 185.753024 200.559333 173.237878 L 201.911634 168.975755 L 193.759301 163.517727 C 189.275518 160.515811 185.496127 158.170539 185.360655 158.306012 C 185.225182 158.441485 183.937737 165.515553 182.499665 174.026163 C 181.061594 182.536773 179.010867 193.432736 177.942495 198.239413 C 175.346888 209.91722 175.309446 209.679017 179.660776 209.171023 L 183.321553 208.743648 L 181.160776 212.239858 C 178.984387 215.761331 178.327462 219 179.789565 219 C 180.223825 219 182.218702 215.9625 184.222625 212.25 z M 36.076923 212.076923 C 41.774481 206.379366 38.371395 198 30.359906 198 C 25.183699 198 22 201.130331 22 206.219769 C 22 214.369884 30.321525 217.832321 36.076923 212.076923 z M 175.851974 171 L 178.617181 153.5 L 176.55859 151.934503 C 166.024206 143.923413 148.909157 133.092585 148.526701 134.195227 C 148.27779 134.912852 147.591159 140.894568 147.000855 147.487929 C 146.142613 157.07401 146.183349 159.561116 147.204173 159.901391 C 149.562105 160.687368 153.891215 165.718385 154.583681 168.477387 C 155.01902 170.211917 154.683604 172.440278 153.665967 174.574284 L 152.06215 177.937524 L 159.572608 183.181325 C 166.144479 187.769807 166.823679 188.521081 165.007486 189.192934 C 163.016741 189.929359 163.085523 190.166504 166.690332 194.995002 L 170.448756 200.029262 L 171.767762 194.264631 C 172.493215 191.094084 174.331111 180.625 175.851974 171 z M 238.259664 157.593088 C 256.123304 129.317918 269.078647 100.464523 277.070787 71.155191 L 279.891635 60.810382 L 277.445818 61.424243 C 276.100618 61.761867 275.00633 61.692031 275.014066 61.269052 C 275.021802 60.846073 276.803362 57.243464 278.973089 53.263254 L 282.918046 46.026507 L 280.709023 44.896214 C 277.891262 43.454446 275.050944 39.96364 275.022236 37.907042 C 275.003169 36.541108 272.625692 36.220443 258.340288 35.657042 C 249.177447 35.295669 235.677447 35 228.340288 35 C 216.345787 35 214.988383 35.176542 214.884846 36.75 C 214.636657 40.521717 215.249358 42.638864 217.577346 46.053751 C 221.277723 51.481771 220.826086 55.523835 216.006993 60.108129 C 212.632967 63.317762 212.152113 64.262613 212.905034 66.203293 C 213.39511 67.466482 214.756016 70.914811 215.929269 73.866246 L 218.062455 79.232491 L 215.74551 78.650975 L 213.428565 78.069459 L 213.836139 91.15071 C 214.508952 112.7449 211.435465 140.381287 206.093549 160.771038 L 204.188608 168.042076 L 207.344304 170.376658 C 209.079937 171.660678 213.195918 174.517249 216.490929 176.724595 L 222.481859 180.73795 L 226.866575 174.712063 C 229.278169 171.397825 234.405059 163.694286 238.259664 157.593088 z M 150.411106 175.923275 C 153.23902 172.56249 153.627267 170.046256 151.836657 166.684259 C 149.055944 161.463272 142.953256 160.415811 138.355764 164.370408 C 132.432331 169.465531 136.415091 179 144.46687 179 C 146.985993 179 148.467418 178.233217 150.411106 175.923275 z M 207.415962 146 C 210.71145 129.075369 212 114.800777 212 95.217914 L 212 78.783184 L 209.379459 79.440898 C 206.84066 80.078096 206.779688 79.987899 207.424772 76.549306 C 208.172639 72.562835 207.433503 72.259027 201 73.908526 C 199.075 74.402081 196.336788 75.064499 194.915084 75.380568 C 191.308585 76.182352 190.209254 82.091827 189.49804 104.5 C 189.183824 114.4 188.277167 128.575 187.483248 136 C 185.225472 157.115469 184.689171 155.087477 194.218005 161.46708 L 202.43601 166.969077 L 203.709014 162.734538 C 204.409167 160.405542 206.077293 152.875 207.415962 146 z M 141.532598 160.402462 C 143.55286 159.895409 143.959471 159.026373 144.454899 154.156727 C 144.771427 151.045527 145.499432 144.723369 146.072689 140.107487 C 146.645946 135.491605 146.751605 131.397642 146.307487 131.009791 C 145.863369 130.62194 139.2 125.891133 131.5 120.496888 C 123.8 115.102642 107.926211 103.733087 96.224912 95.231209 L 74.949825 79.773249 L 69.724912 84.636625 C 66.851211 87.311481 64.5 89.803052 64.5 90.17345 C 64.5 90.543847 74.175 100.862286 86 113.103313 C 111.945923 139.962065 135.816329 162.284459 137.784234 161.529303 C 138.555096 161.233495 140.24186 160.726417 141.532598 160.402462 z M 180.46492 135.293195 C 181.309214 127.479452 182 117.418168 182 112.934787 L 182 104.783184 L 179.5 105.410644 C 176.491165 106.165813 176.497692 106.272439 179 97.242559 C 181.423024 88.498785 181.414823 89 179.134859 89 C 176.239606 89 172.263709 85.329075 170.994839 81.484363 C 169.871711 78.08125 169.719829 78 164.481465 78 C 161.531578 78 158.83655 78.45545 158.492514 79.012112 C 157.152234 81.180732 148.417942 129.767897 149.227376 130.552268 C 151.214469 132.477833 178.55854 150.683478 178.71492 150.185035 C 178.833125 149.808266 179.620625 143.106938 180.46492 135.293195 z M 32.258848 110.114986 C 28.689887 100.856289 16 62.108699 16 60.469849 C 16 58.547632 14.024759 57.575241 12.736661 58.863339 C 11.951229 59.648771 11.278504 59.646101 10.323794 58.853762 C 8.644603 57.460157 8.545266 66.663691 10.030254 86.050106 C 11.126017 100.355226 14.73886 131.533034 15.579579 133.939202 C 15.922444 134.920497 19.061489 132.41174 25.445586 126.054188 L 34.808734 116.729972 L 32.258848 110.114986 z M 148.443951 121.772377 C 148.832992 118.32257 150.688375 107.625 152.567025 98 C 156.551775 77.584682 156.409206 79 154.480948 79 C 153.397524 79 153.12657 78.343886 153.536121 76.712105 C 154.091018 74.501219 153.561518 74.300332 137.805173 70.743942 C 128.837328 68.719794 116.04714 65.600382 109.382533 63.811913 L 97.265065 60.560152 L 87.132533 69.384577 C 81.55964 74.238011 77 78.362375 77 78.549829 C 77 78.940777 112.944826 105.057779 133 119.238637 C 140.425 124.488797 146.778236 128.617966 147.118302 128.414568 C 147.458368 128.21117 148.05491 125.222184 148.443951 121.772377 z M 45.285237 106.023962 C 45.89631 105.483551 34.322542 86.199852 18.862758 62 C 18.16724 60.911276 18.072514 61.185461 18.517274 63 C 19.684311 67.761294 32.21927 105.345726 34.115823 109.770204 L 36.020676 114.214045 L 40.260338 110.466222 C 42.592152 108.404919 44.853357 106.405902 45.285237 106.023962 z M 55.418919 83.471896 C 52.163513 79.822805 47.565983 74.736318 45.202184 72.168592 L 40.904368 67.5 L 43.298875 71.5 C 44.615854 73.7 48.292426 79.707445 51.469035 84.849878 L 57.244689 94.199756 L 59.291263 92.153181 L 61.337838 90.106607 L 55.418919 83.471896 z M 636.545455 87.545455 C 641.859722 82.231187 638.1384 73 630.681818 73 C 628.331766 73 626.453737 73.81899 624.636364 75.636364 C 619.145548 81.12718 622.76768 90 630.5 90 C 632.979237 90 634.850786 89.240123 636.545455 87.545455 z M 72.783346 78.881929 C 72.290496 77.458852 33.799667 49 32.367792 49 C 28.241228 49 32.511209 55.283626 49.5 74.211445 L 62.5 88.695209 L 67.783346 84.197643 C 70.689186 81.723981 72.939186 79.33191 72.783346 78.881929 z M 187.499703 83.817984 C 194.55219 75.436579 182.687631 65.158523 174.923077 72.923077 C 171.297836 76.548317 171.196275 79.891377 174.588894 83.923275 C 178.293329 88.325746 183.744075 88.281294 187.499703 83.817984 z M 81.693 71.725788 C 84.88685 68.824972 89.209589 64.994325 91.299088 63.21324 C 93.706026 61.16157 94.622134 59.8127 93.799088 59.532259 C 93.084589 59.288805 79.675 54.82627 64 49.615516 C 48.325 44.404762 32.203887 38.77126 28.175305 37.096623 C 23.92818 35.33114 21.020722 34.566144 21.255481 35.275914 C 21.714137 36.66261 24.279651 38.119186 31.5 41.09226 C 36.023822 42.955004 36.329763 43.27604 34.712466 44.463226 C 33.087633 45.655945 33.679262 46.363301 41.212466 52.234674 C 54.512405 62.600636 74.204012 77 75.079869 77 C 75.523241 77 78.49915 74.626605 81.693 71.725788 z M 179.103898 68.367395 L 183.063017 67.734307 L 182.781509 56.630418 L 182.5 45.526529 L 176 43.763533 C 168.583206 41.751875 167.46441 41.921813 166.754571 45.167855 C 166.474076 46.450535 165.068655 52 163.631412 57.5 C 162.19417 63 161.014139 68.002235 161.009122 68.616079 C 161.004105 69.229922 163.35054 70.625292 166.223422 71.716902 L 171.446845 73.701646 L 173.295812 71.351065 C 174.429053 69.910383 176.677337 68.755418 179.103898 68.367395 z M 197.723095 67.778888 C 203.69698 61.858103 204 61.689139 204 64.278888 C 204 67.468883 205.926169 67.844052 208.380461 65.13209 C 209.991767 63.351616 209.927395 63.235479 207.005276 62.651055 C 205.319185 62.313837 202.877042 60.891352 201.578291 59.489977 L 199.216927 56.942023 L 194.608464 63.400206 C 190.49293 69.167609 188.721611 74 190.723095 74 C 191.120797 74 194.270797 71.2005 197.723095 67.778888 z M 495.421996 71.75 C 498.634717 68.89681 499.520888 63.907966 497.506813 60.013176 C 494.588552 54.36988 488.181526 53.293487 483.076725 57.588894 C 480.514968 59.74447 480 60.901219 480 64.5 C 480 68.098781 480.514968 69.25553 483.076725 71.411106 C 486.993983 74.707262 491.939229 74.843015 495.421996 71.75 z M 155 71.112204 C 155 69.5756 151.883949 68.108918 138.25 63.228211 C 129.0375 59.930303 118.299456 56.21119 114.387681 54.963517 L 107.275362 52.69502 L 103.665538 55.575367 C 101.680134 57.159557 100.380678 58.767369 100.777857 59.148282 C 101.375873 59.721807 151.876308 72.746157 154.25 72.939052 C 154.6625 72.972573 155 72.150492 155 71.112204 z M 209 68.877555 C 209 67.111296 208.75012 66.962492 207.51101 67.990862 C 206.006016 69.239896 206.326556 71 208.059017 71 C 208.576558 71 209 70.0449 209 68.877555 z M 162.462984 54.422561 C 164.333592 47.332068 165.780178 41.446845 165.67762 41.344286 C 165.393268 41.059935 135.864007 35.202644 132.902633 34.843188 C 130.454813 34.546068 123.72366 38.99956 112.5 48.342058 L 109.5 50.839237 L 112 51.774283 C 113.375 52.288558 121.025 55.027052 129 57.859825 C 136.975 60.692597 146.875 64.271696 151 65.813377 C 155.125 67.355058 158.626423 68.323469 158.780939 67.9654 C 158.935455 67.607332 160.592375 61.513054 162.462984 54.422561 z M 194.855109 60.091052 C 200.133715 52.565882 200.210121 50.430075 195.25 49.052581 C 193.1875 48.479796 191.1625 48.008644 190.75 48.005577 C 190.3375 48.00251 190 52.05 190 57 C 190 61.95 190.159799 66 190.355109 66 C 190.550419 66 192.575419 63.340973 194.855109 60.091052 z M 216.184248 58.020791 C 220.678346 52.470814 216.639985 44 209.5 44 C 201.824486 44 198.063651 53.15456 203.504132 58.595041 C 205.57139 60.662299 206.737534 61.026247 210.18838 60.681162 C 212.961561 60.403844 214.979637 59.508422 216.184248 58.020791 z M 101.233535 55.082645 C 103.029333 53.478099 104.273932 51.949983 103.999311 51.68683 C 102.347408 50.103916 64.094336 39.58272 47.5 36.147156 C 38.617789 34.308251 38.495671 34.309306 38.169197 36.227796 C 37.987256 37.296958 38.082932 38.416265 38.381811 38.715144 C 39.253504 39.586837 94.322891 57.897625 96.234223 57.9513 C 97.188046 57.978085 99.437736 56.68719 101.233535 55.082645 z M 10.683114 47.8125 C 10.363888 47.014767 10.126931 47.251724 10.078947 48.416667 C 10.035526 49.470833 10.271875 50.061458 10.604167 49.729167 C 10.936458 49.396875 10.971985 48.534375 10.683114 47.8125 z M 117.531653 42.042644 C 126.418908 35.124227 126.944593 34.521365 124.805609 33.700792 C 122.290377 32.73588 97.442592 31.500718 61.660443 30.561899 C 35.709312 29.881018 32.908964 30.808254 49.606723 34.553062 C 62.209475 37.379482 83.627744 43.10048 96 46.945092 C 101.225 48.568733 106.05172 49.807804 106.726043 49.698583 C 107.400367 49.589362 112.262892 46.14419 117.531653 42.042644 z M 202.103529 45.050317 C 203.725855 43.427991 205.696278 40.277991 206.482247 38.050317 L 207.911282 34 L 198.455641 34 L 189 34 L 189.015313 38.75 C 189.03357 44.413406 189.56669 45.366921 193.5 46.771109 C 198.0742 48.404093 198.918652 48.235194 202.103529 45.050317 z M 291.545455 41.545455 C 296.872813 36.218096 293.048129 26.6 285.602319 26.6 C 283.040077 26.6 281.228391 27.333367 279.549923 29.05 C 273.894691 34.833817 277.542818 44 285.5 44 C 287.979237 44 289.850786 43.240123 291.545455 41.545455 z M 182 38.62383 L 182 34.24766 L 176.25 33.749508 C 173.0875 33.475524 170.344873 33.387428 170.155272 33.553739 C 169.965672 33.720049 169.740672 35.319307 169.655272 37.107645 C 169.509831 40.153294 169.784923 40.436556 174 41.581409 C 181.682667 43.668091 182 43.550774 182 38.62383 z M 212 39.69113 C 212 38.421251 211.424804 36.595632 210.721787 35.634199 C 209.579691 34.072289 209.328262 34.318159 208.360718 37.94307 C 207.318995 41.84589 207.367551 42 209.638931 42 C 211.438618 42 212 41.451029 212 39.69113 z M 167.90032 34.25 C 167.976549 33.294074 164.177036 33.019544 151.75 33.083075 L 135.5 33.16615 L 151 36.335902 C 166.26132 39.456843 166.510014 39.474812 167.15032 37.502826 C 167.507996 36.401272 167.845496 34.9375 167.90032 34.25 z M 28.916667 34.627176 C 27.493865 33.354087 22 31.093608 22 31.781278 C 22 32.239229 23.2375 33.102914 24.75 33.700578 C 27.590998 34.823196 29.646638 35.280337 28.916667 34.627176 z M 266.235006 33.254734 C 257.360622 32.938472 257.014621 32.841197 258.02813 30.947439 C 258.819404 29.468929 258.760139 28.851362 257.793124 28.498596 C 255.100498 27.516328 227.300188 21.136893 222.906153 20.49296 L 218.312305 19.819746 L 217.156153 25.576654 C 216.520269 28.742954 216 31.698794 216 32.145189 C 216 32.881582 237.847713 33.514797 265 33.565362 L 275.5 33.584916 L 266.235006 33.254734 z M 181.629587 28.25 C 181.329173 26.1875 180.797391 22.1375 180.447851 19.25 C 179.611928 12.344555 178 12.509182 178 19.5 C 178 24.590607 176.989338 26.409799 175.5 24 C 174.306011 22.068085 173.233725 23.037632 172.241631 26.946173 C 171.133046 31.313657 171.467665 31.563122 178.837898 31.863818 C 182.142864 31.998656 182.170407 31.963002 181.629587 28.25 z M 208 30.610009 C 208 28.864179 199.369152 17.047376 197.720681 16.536225 C 197.049306 16.328048 194.338287 15.949782 191.696192 15.695633 C 186.96257 15.240296 186.899566 15.272017 187.383884 17.866772 C 187.654209 19.315048 188.160803 23.0875 188.509648 26.25 L 189.143913 32 L 198.571956 32 C 205.954143 32 208 31.698376 208 30.610009 z M 214.356953 30.512179 C 214.670964 29.693878 215.227083 26.768878 215.592772 24.012179 C 216.203043 19.411735 216.089503 19 214.210618 19 C 213.084744 19 211.503874 18.746849 210.697574 18.437442 C 209.500105 17.977931 209.312712 18.756417 209.67454 22.687442 C 209.918173 25.334349 210.324643 28.5125 210.577806 29.75 C 211.097327 32.289488 213.489779 32.771998 214.356953 30.512179 z M 170.32532 26.558637 C 171.836625 22.123202 171.835386 22.116863 169.396977 21.808637 L 166.955309 21.5 L 169.430046 17.873117 L 171.904782 14.246233 L 168.328106 13.665818 C 165.427854 13.195172 164.410251 13.50285 162.94741 15.292702 L 161.14339 17.5 L 160.286074 15.213375 C 159.45902 13.007465 159.01526 13.230533 147.714379 21.532893 C 141.271471 26.266271 136 30.332752 136 30.569518 C 136 30.806283 143.382699 31 152.405998 31 L 168.811996 31 L 170.32532 26.558637 z M 144.045707 21.75 L 155.066395 13.5 L 150.783197 12.824123 C 135.336586 10.38669 88.173252 13.48039 56 19.04147 C 38.407677 22.082267 39.149024 21.853865 39.724815 24.055694 C 40.193439 25.847714 41.191024 26 52.461421 26 C 65.056452 26 91.901769 27.592126 102.5 28.967657 C 105.8 29.39596 114.018129 29.803452 120.76251 29.873195 L 133.025019 30 L 144.045707 21.75 z M 70.783522 28.26633 C 68.189459 28.061084 63.689459 28.058954 60.783522 28.261596 C 57.877585 28.464237 60 28.632166 65.5 28.634769 C 71 28.637373 73.377585 28.471575 70.783522 28.26633 z M 208.245763 22.725074 C 207.949683 20.34903 207.055301 18.56478 205.832245 17.91022 C 202.286406 16.012545 202.089429 17.444994 205.236446 22.242974 C 206.947462 24.85161 208.430358 26.87661 208.531771 26.742974 C 208.633183 26.609339 208.50448 24.801283 208.245763 22.725074 z M 204.980772 13.476832 C 203.94301 12.226405 203.512757 12.170341 202.874894 13.202426 C 202.362112 14.032124 202.690646 14.724631 203.786622 15.124234 C 206.110454 15.971524 206.549036 15.366474 204.980772 13.476832 z M 4.345077 12.456872 C 4.019392 11.608151 3.538454 11.128212 3.276326 11.390341 C 3.014198 11.652469 3.096348 12.346877 3.458881 12.933469 C 4.444931 14.52893 5.021261 14.218979 4.345077 12.456872 z M 9.606989 12.418213 C 9.273145 11.548229 8.993109 9.185729 8.984687 7.168213 C 8.973264 4.431686 8.723164 3.880984 8 5 C 7.466844 5.825 7.023735 8.1875 7.015313 10.25 C 7.003945 13.033981 7.413968 14 8.606989 14 C 9.66151 14 10.0053 13.456196 9.606989 12.418213 z M 196 13.196167 C 196 11.507594 189.079419 5.755547 187.689518 6.288902 C 186.047653 6.918944 186.567992 12.01282 188.399029 13.234687 C 189.891734 14.230782 196 14.199826 196 13.196167 z M 195.80922 8 C 193.103607 3.647581 191 1.714968 191 3.581703 C 191 4.235919 198.052693 13 198.579157 13 C 198.765185 13 197.518713 10.75 195.80922 8 z M 175.375325 9.549934 C 176.89356 7.232814 176.859104 7.013432 174.740335 5.506916 C 172.605679 3.989104 172.372235 4.065174 169.791456 7.11955 C 166.676102 10.8066 166.957932 12 170.944007 12 C 172.839536 12 174.298536 11.193322 175.375325 9.549934 z M 180 10.5 C 180 9.675 179.55 9 179 9 C 178.45 9 178 9.675 178 10.5 C 178 11.325 178.45 12 179 12 C 179.55 12 180 11.325 180 10.5 z" stroke-linecap="round" />
</g>
</svg>